<?xml version="1.0" encoding="UTF-8" standalone="no"?><svg xmlns:svg="http://www.w3.org/2000/svg" xmlns="http://www.w3.org/2000/svg" xmlns:xlink="http://www.w3.org/1999/xlink" version="1.0" width="100px" height="100px" viewBox="0 0 128 128" xml:space="preserve"><g><path d="M59.6 0h8v40h-8V0z" fill="#5b839e"/><path d="M59.6 0h8v40h-8V0z" fill="#dee6ec" transform="rotate(30 64 64)"/><path d="M59.6 0h8v40h-8V0z" fill="#dee6ec" transform="rotate(60 64 64)"/><path d="M59.6 0h8v40h-8V0z" fill="#dee6ec" transform="rotate(90 64 64)"/><path d="M59.6 0h8v40h-8V0z" fill="#dee6ec" transform="rotate(120 64 64)"/><path d="M59.6 0h8v40h-8V0z" fill="#cddae2" transform="rotate(150 64 64)"/><path d="M59.6 0h8v40h-8V0z" fill="#bdcdd8" transform="rotate(180 64 64)"/><path d="M59.6 0h8v40h-8V0z" fill="#adc1ce" transform="rotate(210 64 64)"/><path d="M59.6 0h8v40h-8V0z" fill="#9db5c5" transform="rotate(240 64 64)"/><path d="M59.6 0h8v40h-8V0z" fill="#8ca8bb" transform="rotate(270 64 64)"/><path d="M59.6 0h8v40h-8V0z" fill="#7c9cb1" transform="rotate(300 64 64)"/><path d="M59.6 0h8v40h-8V0z" fill="#6b8fa8" transform="rotate(330 64 64)"/><animateTransform attributeName="transform" type="rotate" values="0 64 64;30 64 64;60 64 64;90 64 64;120 64 64;150 64 64;180 64 64;210 64 64;240 64 64;270 64 64;300 64 64;330 64 64" calcMode="discrete" dur="720ms" repeatCount="indefinite"></animateTransform></g></svg>